<?xml version="1.0" standalone="no"?>
<!DOCTYPE svg PUBLIC "-//W3C//DTD SVG 20010904//EN"
 "http://www.w3.org/TR/2001/REC-SVG-20010904/DTD/svg10.dtd">
<svg version="1.0" xmlns="http://www.w3.org/2000/svg"
 width="1024.000000pt" height="1024.000000pt" viewBox="0 0 1024.000000 1024.000000"
 preserveAspectRatio="xMidYMid meet">

<g transform="translate(0.000000,1024.000000) scale(0.100000,-0.100000)"
fill="#236FAEFF" stroke="none">
<path d="M5050 8169 c-63 -26 -2029 -1168 -2061 -1196 -20 -18 -47 -57 -59
-86 -21 -48 -22 -62 -17 -182 3 -71 13 -170 22 -220 21 -122 77 -346 86 -343
7 3 324 296 479 443 125 119 174 159 305 247 299 201 677 338 1045 378 255 27
262 29 318 63 58 34 152 138 390 432 l129 161 -270 153 c-274 155 -315 172
-367 150z" fill="#236FAEFF"/>
<path d="M5934 7682 c-12 -15 -115 -128 -228 -252 -135 -147 -202 -227 -193
-231 6 -4 39 -12 72 -19 343 -67 715 -237 980 -448 98 -78 137 -114 418 -385
136 -132 249 -238 251 -236 9 9 56 190 75 284 64 322 51 488 -41 558 -41 31
-1294 757 -1305 756 -4 0 -18 -12 -29 -27z" fill="#B7260FFF"/>
<path d="M2570 6737 c-41 -24 -156 -90 -256 -146 -133 -76 -186 -111 -200
-134 -18 -31 -19 -74 -19 -1522 0 -1460 0 -1491 20 -1522 15 -26 98 -77 410
-254 214 -123 401 -229 414 -238 l24 -15 -7 149 c-4 83 -18 332 -31 555 -20
365 -25 410 -45 455 -64 149 -130 375 -156 543 -22 140 -29 414 -15 562 18
185 71 435 126 589 15 44 15 46 -25 172 -92 291 -137 512 -147 722 -3 70 -9
127 -12 127 -4 0 -40 -19 -81 -43z"/>
<path d="M7605 6681 c-18 -233 -74 -504 -159 -766 l-45 -141 30 -99 c82 -272
104 -427 104 -740 -1 -215 -4 -268 -23 -378 -26 -145 -71 -302 -129 -457 -38
-99 -41 -113 -47 -250 -3 -80 -17 -311 -31 -515 -14 -203 -25 -382 -25 -396 0
-25 7 -22 208 91 114 65 302 171 417 237 178 100 213 124 228 153 16 33 17
122 15 1522 -3 1486 -3 1487 -24 1515 -12 17 -116 83 -266 169 l-246 140 -7
-85z"/>
<path d="M5975 5971 c-153 -39 -227 -195 -161 -336 66 -142 241 -180 372 -80
71 54 102 201 59 285 -50 100 -168 158 -270 131z" fill="#B7260FFF"/>
<path d="M4175 5796 c61 -29 97 -65 127 -131 l23 -50 3 -852 3 -853 204 0 205
0 -2 470 c-2 259 0 470 3 470 4 0 9 -6 12 -13 2 -7 136 -218 297 -470 l292
-457 229 0 229 0 -43 73 c-24 39 -86 144 -139 232 -223 374 -498 861 -498 882
0 7 115 170 255 362 140 192 255 352 255 355 0 3 -42 6 -94 6 l-95 0 -289
-382 c-159 -211 -314 -418 -346 -460 -31 -43 -58 -78 -59 -78 -1 0 -2 19 -2
42 0 24 -2 231 -3 461 l-2 417 -307 0 -308 0 50 -24z" fill="#B7260FFF"/>
<path d="M3231 5748 c175 -114 364 -330 464 -528 46 -92 101 -253 127 -374 29
-134 31 -422 4 -565 -19 -103 -56 -226 -92 -311 -22 -51 -23 -53 -3 -30 11 14
52 72 90 128 111 167 176 318 225 528 27 112 28 133 29 344 0 200 -3 237 -23
329 -38 169 -110 354 -188 482 l-35 59 -346 0 -347 0 95 -62z" fill="#C79F1BFF"/>
<path d="M5712 5216 c77 -28 127 -79 147 -151 7 -27 11 -224 11 -592 l0 -553
214 0 215 0 -22 48 c-22 47 -22 51 -22 654 l0 608 -290 0 c-254 -1 -285 -3
-253 -14z" fill="#C79F1BFF"/>
<path d="M6401 4054 c-26 -34 -27 -74 -1 -107 49 -61 139 -30 140 49 0 49 -34
84 -80 84 -30 0 -43 -6 -59 -26z m103 -10 c33 -32 6 -114 -38 -114 -26 0 -66
41 -66 67 0 54 67 84 104 47z" fill="#C79F1BFF"/>
<path d="M6430 4001 c0 -22 5 -43 10 -46 6 -3 10 3 10 14 0 24 18 28 26 6 10
-24 19 -17 18 13 -1 39 -11 52 -40 52 -21 0 -24 -4 -24 -39z m48 11 c2 -7 -3
-12 -12 -12 -9 0 -16 7 -16 16 0 17 22 14 28 -4z" fill="#F00E0EFF"/>
<path d="M3150 3613 c0 -4 11 -174 25 -376 27 -409 32 -432 103 -500 20 -19
179 -116 352 -214 173 -99 566 -325 873 -502 307 -177 571 -327 588 -333 16
-5 44 -7 63 -4 18 4 323 176 677 382 354 207 750 437 879 512 129 74 247 143
262 153 59 42 65 73 93 474 14 204 27 378 29 388 2 9 3 17 2 17 -2 0 -39 -44
-83 -97 -154 -187 -371 -384 -563 -513 -490 -329 -1091 -469 -1650 -384 -634
95 -1172 405 -1570 904 -44 56 -80 97 -80 93z" fill="#C79F1BFF"/>
</g>
</svg>
